<svg width="79" height="52" viewBox="0 0 79 52" fill="none" xmlns="http://www.w3.org/2000/svg">
<path d="M69.5718 37.7114V42.0245C69.5718 44.2709 67.7747 46.068 65.5283 46.068H6.0433C3.79689 46.068 1.99976 44.2709 1.99976 42.0245V6.08187C1.99976 3.83546 3.79689 2.03833 6.0433 2.03833H65.5283C67.7747 2.03833 69.5718 3.83546 69.5718 6.08187V30.2533" stroke="#3B4956" stroke-width="3" stroke-miterlimit="10" stroke-linejoin="round"/>
<path d="M7.39111 8.50781H32.1915" stroke="#3B4956" stroke-width="3" stroke-miterlimit="10" stroke-linejoin="round"/>
<path d="M39.3801 8.50781H64.1805" stroke="#3B4956" stroke-width="3" stroke-miterlimit="10" stroke-linejoin="round"/>
<path d="M7.39111 13.3604H32.1915" stroke="#3B4956" stroke-width="3" stroke-miterlimit="10" stroke-linejoin="round"/>
<path d="M39.3801 13.3604H64.1805" stroke="#3B4956" stroke-width="3" stroke-miterlimit="10" stroke-linejoin="round"/>
<path d="M7.39111 18.1226H32.1915" stroke="#3B4956" stroke-width="3" stroke-miterlimit="10" stroke-linejoin="round"/>
<path d="M39.3801 18.1226H64.1805" stroke="#3B4956" stroke-width="3" stroke-miterlimit="10" stroke-linejoin="round"/>
<path d="M9.45801 46.158V51.1001" stroke="#3B4956" stroke-width="3" stroke-miterlimit="10" stroke-linejoin="round"/>
<path d="M16.2869 46.158V51.1001" stroke="#3B4956" stroke-width="3" stroke-miterlimit="10" stroke-linejoin="round"/>
<path d="M54.3862 46.158V51.1001" stroke="#3B4956" stroke-width="3" stroke-miterlimit="10" stroke-linejoin="round"/>
<path d="M61.2153 46.158V51.1001" stroke="#3B4956" stroke-width="3" stroke-miterlimit="10" stroke-linejoin="round"/>
<path d="M23.8349 39.3287C26.8901 39.3287 29.406 36.8127 29.406 33.7576C29.406 30.7025 26.8901 28.1865 23.8349 28.1865H17.0957V39.3287H23.8349Z" stroke="#3B4956" stroke-width="3" stroke-miterlimit="10" stroke-linejoin="round"/>
<path d="M17.0957 36.3633H10.5361" stroke="#3B4956" stroke-width="3" stroke-miterlimit="10" stroke-linejoin="round"/>
<path d="M17.0959 31.2419H10.5364" stroke="#3B4956" stroke-width="3" stroke-miterlimit="10" stroke-linejoin="round"/>
<path d="M29.3159 33.8477H73.1659C75.4123 33.8477 77.2993 35.7346 77.2993 37.9811C77.2993 40.2275 75.4123 42.1145 73.1659 42.1145" stroke="#3B4956" stroke-width="3" stroke-miterlimit="10" stroke-linejoin="round"/>
</svg>
