<svg width="106" height="61" viewBox="0 0 106 61" fill="none" xmlns="http://www.w3.org/2000/svg">
<path d="M21.7001 21.8H47.1C47.6 21.8 48 21.4 48 20.9V17.4C48 16.9 47.6 16.5 47.1 16.5H41.1V0.9C41.1 0.4 40.7001 0 40.2001 0H29C28.5 0 28.1 0.4 28.1 0.9V16.5H21.7001C21.2001 16.5 20.8 16.9 20.8 17.4V20.9C20.8 21.4 21.2001 21.8 21.7001 21.8ZM29.9 1.8H39.3V16.5H29.9V1.8ZM22.6 18.3H29H40.2001H46.1V20H22.6V18.3Z" fill="#3B4956"/>
<path d="M104.4 0.699951H77C76.5 0.699951 76.1 1.09995 76.1 1.59995V30.2H43.2C43.4 30 43.6 29.7999 43.6 29.5C43.6 29 43.2 28.6 42.7 28.6H36.9C36.4 28.6 36 29 36 29.5C36 29.7999 36.2 30.1 36.4 30.2H32.1C32.3 30 32.5 29.7999 32.5 29.5C32.5 29 32.1 28.6 31.6 28.6H25.8C25.3 28.6 24.9 29 24.9 29.5C24.9 29.7999 25.1 30.1 25.3 30.2H0.9C0.4 30.1 0 30.5 0 31V59.5C0 60 0.4 60.4 0.9 60.4H76.5C76.6 60.5 76.8 60.5 76.9 60.5H104.3C104.8 60.5 105.2 60.0999 105.2 59.5999V1.59995C105.3 1.09995 104.9 0.699951 104.4 0.699951ZM103.5 2.49995V19.4H77.9V2.49995H103.5ZM76 45.2999H47.5V31.9H76V45.2999ZM45.7 38H23.2V32H45.7V38ZM23.2 39.7999H45.7V58.7H23.2V39.7999ZM1.8 31.9H21.4V58.5999H1.8V31.9ZM47.5 58.5999V47.0999H76V58.7H47.5V58.5999ZM77.9 58.7999V21.2H103.5V58.7999H77.9Z" fill="#3B4956"/>
<path d="M18.7001 41.2C18.2001 41.2 17.8 41.5999 17.8 42.0999V49.0999C17.8 49.5999 18.2001 50 18.7001 50C19.2001 50 19.6 49.5999 19.6 49.0999V42.0999C19.6 41.5999 19.2001 41.2 18.7001 41.2Z" fill="#3B4956"/>
<path d="M56.5999 39.5H65.9C66.4 39.5 66.8 39.0999 66.8 38.5999C66.8 38.0999 66.4 37.7 65.9 37.7H56.5999C56.0999 37.7 55.7 38.0999 55.7 38.5999C55.7 39.0999 56.0999 39.5 56.5999 39.5Z" fill="#3B4956"/>
<path d="M66.2 51.8H56.9C56.4 51.8 56 52.2001 56 52.7001C56 53.2001 56.4 53.6 56.9 53.6H66.2C66.7 53.6 67.1 53.2001 67.1 52.7001C67.1 52.2001 66.7 51.8 66.2 51.8Z" fill="#3B4956"/>
<path d="M41.5999 42.3H26.7999C26.2999 42.3 25.8999 42.7001 25.8999 43.2001V53.5C25.8999 54 26.2999 54.4001 26.7999 54.4001H41.6999C42.1999 54.4001 42.5999 54 42.5999 53.5V43.2001C42.4999 42.7001 42.0999 42.3 41.5999 42.3ZM40.6999 52.5H27.6999V44H40.7999V52.5H40.6999Z" fill="#3B4956"/>
<path d="M82.2999 16.5C82.7999 16.5 83.1999 16.1 83.1999 15.6V8.09995C83.1999 7.59995 82.7999 7.19995 82.2999 7.19995C81.7999 7.19995 81.3999 7.59995 81.3999 8.09995V15.5C81.3999 16.1 81.7999 16.5 82.2999 16.5Z" fill="#3B4956"/>
<path d="M81.9 25.1001C81.4 25.1001 81 25.5001 81 26.0001V33.4001C81 33.9001 81.4 34.3001 81.9 34.3001C82.4 34.3001 82.8 33.9001 82.8 33.4001V26.0001C82.8 25.5001 82.4 25.1001 81.9 25.1001Z" fill="#3B4956"/>
</svg>
