<svg width="125" height="108" viewBox="0 0 125 108" fill="none" xmlns="http://www.w3.org/2000/svg">
<path d="M45.3187 80.9524H33.9641C33.1673 80.9524 32.4701 80.258 32.4701 79.4643V69.0477C32.4701 68.254 33.1673 67.5596 33.9641 67.5596H45.3187C46.1155 67.5596 46.8128 68.254 46.8128 69.0477V79.3651C46.8128 80.258 46.1155 80.9524 45.3187 80.9524ZM35.4582 77.9762H43.8247V70.635H35.4582V77.9762Z" fill="#3B4956"/>
<path d="M45.3187 63.2937H33.9641C33.1673 63.2937 32.4701 62.5993 32.4701 61.8056V51.389C32.4701 50.5953 33.1673 49.9009 33.9641 49.9009H45.3187C46.1155 49.9009 46.8128 50.5953 46.8128 51.389V61.7064C46.8128 62.5993 46.1155 63.2937 45.3187 63.2937ZM35.4582 60.3175H43.8247V52.9763H35.4582V60.3175Z" fill="#3B4956"/>
<path d="M45.3187 45.5358H33.9641C33.1673 45.5358 32.4701 44.8414 32.4701 44.0477V33.7303C32.4701 32.9366 33.1673 32.2422 33.9641 32.2422H45.3187C46.1155 32.2422 46.8128 32.9366 46.8128 33.7303V44.0477C46.8128 44.9406 46.1155 45.5358 45.3187 45.5358ZM35.4582 42.5597H43.8247V35.2184H35.4582V42.5597Z" fill="#3B4956"/>
<path d="M45.3187 27.8772H33.9641C33.1673 27.8772 32.4701 27.1827 32.4701 26.3891V16.0716C32.4701 15.2779 33.1673 14.5835 33.9641 14.5835H45.3187C46.1155 14.5835 46.8128 15.2779 46.8128 16.0716V26.3891C46.8128 27.1827 46.1155 27.8772 45.3187 27.8772ZM35.4582 24.901H43.8247V17.5597H35.4582V24.901Z" fill="#3B4956"/>
<path d="M62.5498 27.8772H51.1952C50.3984 27.8772 49.7012 27.1827 49.7012 26.3891V16.0716C49.7012 15.2779 50.3984 14.5835 51.1952 14.5835H62.5498C63.3466 14.5835 64.0438 15.2779 64.0438 16.0716V26.3891C64.0438 27.1827 63.3466 27.8772 62.5498 27.8772ZM52.6892 24.901H61.0558V17.5597H52.6892V24.901Z" fill="#3B4956"/>
<path d="M57.6693 80.9525H51.2948C50.498 80.9525 49.8008 80.2581 49.8008 79.4644V69.0478C49.8008 68.2541 50.498 67.5597 51.2948 67.5597H57.6693C58.4662 67.5597 59.1634 68.2541 59.1634 69.0478V79.3652C59.1634 80.2581 58.4662 80.9525 57.6693 80.9525ZM52.6893 77.9763H56.0757V70.6351H52.6893V77.9763ZM57.6693 63.2938H51.2948C50.498 63.2938 49.8008 62.5993 49.8008 61.8057V51.389C49.8008 50.5954 50.498 49.9009 51.2948 49.9009H57.6693C58.4662 49.9009 59.1634 50.5954 59.1634 51.389V61.7065C59.1634 62.5993 58.4662 63.2938 57.6693 63.2938ZM52.6893 60.3176H56.0757V52.9763H52.6893V60.3176ZM57.6693 45.5358H51.2948C50.498 45.5358 49.8008 44.8414 49.8008 44.0477V33.7303C49.8008 32.9366 50.498 32.2422 51.2948 32.2422H57.6693C58.4662 32.2422 59.1634 32.9366 59.1634 33.7303V44.0477C59.1634 44.9406 58.4662 45.5358 57.6693 45.5358ZM52.6893 42.5597H56.0757V35.2184H52.6893V42.5597Z" fill="#3B4956"/>
<path d="M99.8008 43.651H66.1354C65.3386 43.651 64.6414 42.9566 64.6414 42.1629V35.3177C64.6414 34.524 65.3386 33.8296 66.1354 33.8296H99.8008C100.598 33.8296 101.295 34.524 101.295 35.3177V42.1629C101.295 42.9566 100.598 43.651 99.8008 43.651ZM67.6295 40.6748H98.3068V36.8058H67.6295V40.6748Z" fill="#3B4956"/>
<path d="M99.8008 56.8454H66.1354C65.3386 56.8454 64.6414 56.1509 64.6414 55.3573V48.512C64.6414 47.7184 65.3386 47.0239 66.1354 47.0239H99.8008C100.598 47.0239 101.295 47.7184 101.295 48.512V55.3573C101.295 56.1509 100.598 56.8454 99.8008 56.8454ZM67.6295 53.8692H98.3068V50.0001H67.6295V53.8692Z" fill="#3B4956"/>
<path d="M99.8008 70.0397H66.1354C65.3386 70.0397 64.6414 69.3452 64.6414 68.5516V61.7064C64.6414 60.9127 65.3386 60.2183 66.1354 60.2183H99.8008C100.598 60.2183 101.295 60.9127 101.295 61.7064V68.5516C101.295 69.3452 100.598 70.0397 99.8008 70.0397ZM67.6295 67.0635H98.3068V63.1945H67.6295V67.0635Z" fill="#3B4956"/>
<path d="M99.8008 83.234H66.1354C65.3386 83.234 64.6414 82.5396 64.6414 81.7459V74.9007C64.6414 74.107 65.3386 73.4126 66.1354 73.4126H99.8008C100.598 73.4126 101.295 74.107 101.295 74.9007V81.7459C101.295 82.6388 100.598 83.234 99.8008 83.234ZM67.6295 80.2578H98.3068V76.3888H67.6295V80.2578Z" fill="#3B4956"/>
<path d="M93.1275 106.944H72.7092C71.9124 106.944 71.2151 106.25 71.2151 105.456V90.0794C71.2151 89.2858 71.9124 88.5913 72.7092 88.5913H93.1275C93.9243 88.5913 94.6215 89.2858 94.6215 90.0794V105.556C94.6215 106.349 93.9243 106.944 93.1275 106.944ZM74.2032 103.968H91.6335V91.5675H74.2032V103.968Z" fill="#3B4956"/>
<path d="M57.6693 106.944H41.7331C40.9363 106.944 40.239 106.25 40.239 105.456V90.0794C40.239 89.2858 40.9363 88.5913 41.7331 88.5913H57.5697C58.3665 88.5913 59.0637 89.2858 59.0637 90.0794V105.556C59.1633 106.349 58.4661 106.944 57.6693 106.944ZM43.2271 103.968H56.0757V91.5675H43.2271V103.968Z" fill="#3B4956"/>
<path d="M71.8127 10.6151H24.7012C23.9044 10.6151 23.2072 9.92064 23.2072 9.12699V1.4881C23.2072 0.694445 23.9044 0 24.7012 0H71.9123C72.7092 0 73.4064 0.694445 73.4064 1.4881V9.12699C73.3068 10.0198 72.7092 10.6151 71.8127 10.6151ZM26.1952 7.63889H70.4183V2.97619H26.1952V7.63889Z" fill="#3B4956"/>
<path d="M96.9124 88.5913H68.9243V91.5675H96.9124V88.5913Z" fill="#3B4956"/>
<path d="M13.9442 73.9087H10.9562V94.8412H13.9442V73.9087Z" fill="#3B4956"/>
<path d="M12.4502 83.9285C5.57769 83.9285 0 77.0833 0 68.6507C0 60.2182 5.57769 53.4722 12.4502 53.4722C19.3227 53.4722 24.9004 60.3174 24.9004 68.6507C24.9004 76.9841 19.2231 83.9285 12.4502 83.9285ZM12.4502 56.4484C7.17132 56.4484 2.98805 61.9047 2.98805 68.6507C2.98805 75.3968 7.17132 80.8531 12.4502 80.8531C17.6295 80.8531 21.9124 75.3968 21.9124 68.6507C21.9124 61.9047 17.6295 56.4484 12.4502 56.4484Z" fill="#3B4956"/>
<path d="M123.108 106.945H98.9044C98.4064 106.945 97.9084 106.647 97.6096 106.25C96.9124 105.06 96.5139 103.77 96.5139 102.381C96.5139 98.4128 99.7012 95.2382 103.685 95.2382C105.378 92.4604 108.466 90.7739 111.753 90.7739C116.235 90.7739 120.02 93.8493 120.916 98.1152C123.307 98.9088 125 101.191 125 103.77C125 104.564 124.801 105.357 124.502 106.151C124.203 106.647 123.705 106.945 123.108 106.945ZM99.8008 103.968H121.912C121.912 103.869 121.912 103.77 121.912 103.671C121.912 102.183 120.817 100.992 119.323 100.794C118.626 100.695 118.127 100.199 118.028 99.5041C117.629 96.2303 114.94 93.7501 111.653 93.7501C109.163 93.7501 106.873 95.2382 105.777 97.4207C105.478 98.016 104.88 98.3136 104.183 98.2144C103.984 98.2144 103.785 98.2144 103.586 98.2144C101.295 98.2144 99.4024 100.099 99.4024 102.381C99.502 102.976 99.6016 103.472 99.8008 103.968Z" fill="#3B4956"/>
<path d="M98.8048 106.945H57.6693C56.8725 106.945 56.1753 106.25 56.1753 105.456V26.389C56.1753 25.5953 56.8725 24.9009 57.6693 24.9009H108.267C109.064 24.9009 109.761 25.5953 109.761 26.389V93.2541C109.761 93.8493 109.462 94.3453 108.964 94.643C107.669 95.2382 106.574 96.3295 105.876 97.7184C105.578 98.3136 104.98 98.6112 104.283 98.512C104.084 98.512 103.884 98.512 103.685 98.512C101.394 98.512 99.502 100.397 99.502 102.679C99.502 103.472 99.7012 104.167 100.1 104.861C100.398 105.357 100.398 105.853 100.1 106.349C99.9004 106.647 99.4024 106.945 98.8048 106.945ZM59.1633 103.968H96.7131C96.6135 103.472 96.6135 102.976 96.6135 102.579C96.6135 98.6112 99.8008 95.4366 103.785 95.4366C104.582 94.1469 105.578 93.1549 106.873 92.3612V27.8771H59.1633V103.968Z" fill="#3B4956"/>
<path d="M34.4622 107.143H5.6773C5.1793 107.143 4.68129 106.845 4.38248 106.449C3.48607 105.159 3.08766 103.572 3.08766 101.984C3.08766 97.4209 6.77292 93.7502 11.3546 93.7502C11.3546 93.7502 11.3546 93.7502 11.4542 93.7502C13.4462 90.4764 17.0319 88.3931 20.8167 88.3931C25.996 88.3931 30.4781 92.0637 31.5737 97.024C34.3626 97.9169 36.3546 100.496 36.3546 103.472C36.3546 104.465 36.1554 105.357 35.757 106.151C35.5578 106.746 35.0598 107.143 34.4622 107.143ZM6.57372 104.167H33.3665C33.3665 103.968 33.4661 103.77 33.4661 103.572C33.4661 101.687 32.0717 100.099 30.1793 99.8018C29.4821 99.7026 28.9841 99.2066 28.8845 98.5121C28.3865 94.5439 25 91.4685 21.0159 91.4685C17.9283 91.4685 15.1395 93.2542 13.8446 96.032C13.5458 96.6272 12.9482 96.9248 12.251 96.8256C12.0518 96.8256 11.753 96.7264 11.5538 96.7264C8.66535 96.7264 6.27491 99.1074 6.27491 101.984C6.07571 102.778 6.27491 103.472 6.57372 104.167Z" fill="#3B4956"/>
<path d="M57.6693 106.944H34.4621C33.9641 106.944 33.4661 106.746 33.2669 106.25C32.9681 105.853 32.9681 105.357 33.1673 104.861C33.3665 104.365 33.4661 103.968 33.4661 103.472C33.4661 101.587 32.0717 99.9998 30.1793 99.7022C29.482 99.603 28.984 99.1069 28.8844 98.4125C28.6852 96.6268 27.8884 95.0395 26.5936 93.7498C26.2948 93.4522 26.1952 93.0554 26.1952 92.6585V9.12677C26.1952 8.33312 26.8924 7.63867 27.6892 7.63867H69.0239C69.8207 7.63867 70.5179 8.33312 70.5179 9.12677V26.3887C70.5179 27.1823 69.8207 27.8768 69.0239 27.8768H59.2629V105.456C59.1633 106.349 58.4661 106.944 57.6693 106.944ZM36.3546 103.968H56.0757V26.3887C56.0757 25.595 56.7729 24.9006 57.5697 24.9006H67.3307V10.6149H29.0836V92.0633C30.2789 93.4522 31.1753 95.1387 31.5737 97.0236C34.3625 97.9165 36.3546 100.496 36.3546 103.472C36.3546 103.67 36.3546 103.869 36.3546 103.968Z" fill="#3B4956"/>
</svg>
