<svg width="45" height="28" viewBox="0 0 45 28" fill="none" xmlns="http://www.w3.org/2000/svg">
<path d="M43.9635 12.9416C42.2191 9.32911 38.5154 6.98416 34.5211 6.98416C34.3441 6.98416 34.1545 6.98416 33.9649 6.99683C33.927 6.99683 33.8764 6.99683 33.8385 7.00951C31.3483 2.68719 26.7219 0 21.7542 0C18.6952 0 15.7879 0.976007 13.361 2.81394C11.0478 4.55048 9.36657 6.92078 8.48174 9.67135C6.25702 9.83613 4.18399 10.7995 2.61657 12.4092C0.922753 14.1331 0 16.4147 0 18.823C0 23.8805 4.10815 28 9.15168 28H34.5084C35.0393 28 35.5829 27.962 36.1011 27.8732C38.5534 27.493 40.8034 26.2508 42.434 24.3622C44.0899 22.4482 44.9874 20.0145 44.9874 17.4921C45 15.895 44.6461 14.3613 43.9635 12.9416ZM21.7542 2.59846C25.5211 2.59846 29.0098 4.44907 31.1208 7.55455C29.3764 8.15029 27.8343 9.18968 26.6208 10.584C26.3933 10.8502 26.2795 11.1797 26.3048 11.522C26.3301 11.8642 26.4817 12.1811 26.7472 12.4092C27.0126 12.6374 27.3413 12.7515 27.6826 12.7261C28.0239 12.7008 28.3399 12.5487 28.5674 12.2825C29.7683 10.9135 31.4115 9.98823 33.1938 9.68402C33.2317 9.68402 33.257 9.68402 33.2949 9.67135C33.5983 9.62064 33.8764 9.59529 34.1292 9.58262C34.2809 9.56994 34.3947 9.56994 34.5084 9.56994C38.8567 9.56994 42.4087 13.1191 42.4087 17.4794C42.4087 21.8397 38.8694 25.4015 34.5084 25.4015H9.15168C5.53652 25.4015 2.59129 22.4482 2.59129 18.823C2.59129 15.1978 5.53652 12.2445 9.13904 12.2445L9.44241 12.2571H9.45506C10.0492 12.2445 10.5801 11.8388 10.7191 11.2684C11.9705 6.16025 16.5084 2.59846 21.7542 2.59846Z" fill="#3B4956"/>
</svg>
