<svg width="37" height="23" viewBox="0 0 37 23" fill="none" xmlns="http://www.w3.org/2000/svg">
<path d="M28.1165 22.5429H7.81961C3.85241 22.5429 0.625 19.3168 0.625 15.3504C0.625 11.5309 3.61695 8.39693 7.38093 8.17034C8.82135 3.59468 13.05 0.45752 17.8998 0.45752C21.9105 0.45752 25.5325 2.58651 27.496 6.055C27.7015 6.04009 27.9083 6.0322 28.1154 6.0322C32.669 6.0322 36.3728 9.73458 36.3729 14.2863L28.1165 22.5429ZM28.1165 22.5429C32.6701 22.5429 36.375 18.8394 36.3729 14.2865L28.1165 22.5429ZM8.03293 9.97654L8.0509 9.97753L8.06889 9.97679C8.43267 9.96191 8.83774 9.72418 8.94488 9.28844C9.96335 5.1525 13.6454 2.26508 17.9008 2.26508C21.4349 2.26508 24.6057 4.24019 26.1784 7.42625C26.3644 7.80352 26.7863 8.00251 27.1955 7.90304C27.4983 7.8609 27.8082 7.83976 28.1165 7.83976C31.6719 7.83976 34.5653 10.7315 34.5653 14.2854C34.5653 17.8396 31.6728 20.7332 28.1165 20.7332H7.81961C4.84963 20.7332 2.43362 18.3179 2.43362 15.3504C2.43362 12.3878 4.84154 9.97075 7.90959 9.97075L7.91976 9.97065C7.92107 9.97063 7.92254 9.97059 7.92416 9.97054L8.03293 9.97654Z" fill="#3B4956" stroke="#3B4956" stroke-width="0.75"/>
</svg>
