<svg width="44" height="30" viewBox="0 0 44 30" fill="none" xmlns="http://www.w3.org/2000/svg">
<path d="M42.0886 15C40.9294 13.4628 39.3386 12.2975 37.5628 11.7149C36.9215 5.11983 31.4092 0 24.898 0C21.0874 0 17.4126 1.72314 14.9215 4.64876H14.3543C14.2186 4.59917 14.083 4.56198 13.9473 4.52479L13.9103 4.5124C13.8363 4.4876 13.7623 4.47521 13.676 4.45041C13.4787 4.40083 13.2937 4.37603 13.1457 4.35124L13.0841 4.33884C13.0224 4.32645 12.9484 4.31405 12.8991 4.31405C12.6155 4.27686 12.3565 4.26446 12.0975 4.26446C8.213 4.26446 5.05605 7.38843 4.96973 11.2686C1.98543 13.1157 0 16.6116 0 20.095C0 25.5496 4.4148 30 9.85314 30H27.204C27.3027 30 27.4013 30 27.4753 29.9876H27.4877H27.5C27.574 29.9876 27.6726 30 27.7713 30H34.7141C39.8318 30 43.9877 25.8223 43.9877 20.6777C44 18.657 43.3217 16.6364 42.0886 15ZM27.315 27.5455L27.2657 27.0496C27.241 27.0496 27.2287 27.0496 27.2164 27.0496H9.85314C6.0426 27.0496 2.93498 23.9256 2.93498 20.095C2.93498 17.4174 4.67377 14.6405 7.05381 13.4876L7.89238 13.0909V12.1488C7.89238 12.0868 7.89238 12.0248 7.90471 11.9504L7.91704 11.7645L7.89238 11.5537C7.89238 11.5041 7.88004 11.4669 7.88004 11.4421C7.88004 9.11157 9.76682 7.22727 12.0729 7.22727C12.2332 7.22727 12.4058 7.23967 12.6278 7.26446C12.6771 7.26446 12.7141 7.27686 12.7635 7.28926C12.9238 7.31405 13.0841 7.35124 13.2197 7.38843H13.2321C13.2567 7.40083 13.2814 7.40083 13.3061 7.40083C13.454 7.45041 13.6143 7.5124 13.787 7.58678H13.7993C13.824 7.59917 13.8487 7.61157 13.8856 7.62397L13.9226 7.64876C14.083 7.72314 14.2186 7.80992 14.3419 7.8843C15.5504 8.66529 16.2657 9.99173 16.2657 11.4298C16.2657 12.2479 16.9193 12.905 17.7332 12.905C18.5471 12.905 19.2007 12.2479 19.2007 11.4298C19.2007 9.58264 18.4854 7.79752 17.2152 6.47107C19.139 4.27686 22.037 2.93802 24.8733 2.93802C27.2657 2.93802 29.5841 3.85537 31.3845 5.50413C33.037 7.02893 34.1345 9.04959 34.5168 11.2562C33.7522 11.2438 33.037 11.2934 32.3834 11.3926C31.5818 11.5165 31.0269 12.2727 31.1502 13.0661C31.2612 13.7851 31.8778 14.3182 32.6054 14.3182C32.6794 14.3182 32.7534 14.3182 32.8274 14.3058C34.2332 14.095 35.7377 14.281 35.9103 14.3058C38.8453 14.876 41.0527 17.6033 41.0527 20.6653C41.0527 24.1859 38.204 27.0372 34.7141 27.0372H27.7713C27.759 27.0372 27.7466 27.0372 27.7343 27.0372L27.4507 27.0248L27.2534 27.0372L27.315 27.5455Z" fill="#3B4956"/>
</svg>
