<svg width="59" height="62" viewBox="0 0 59 62" fill="none" xmlns="http://www.w3.org/2000/svg">
<g clip-path="url(#clip0)">
<path d="M47.4897 11.8248C47.4897 14.5413 49.7435 16.7784 52.4802 16.7784C55.2169 16.7784 57.4706 14.5413 57.4706 11.8248V5.83252H47.4897V11.8248Z" stroke="#3B4956" stroke-width="3" stroke-miterlimit="10" stroke-linejoin="round"/>
<path d="M50.146 5.83247V0" stroke="#3B4956" stroke-width="3" stroke-miterlimit="10" stroke-linejoin="round"/>
<path d="M54.7339 5.83247V0" stroke="#3B4956" stroke-width="3" stroke-miterlimit="10" stroke-linejoin="round"/>
<path d="M57.7925 23.4897V47.4588V60.8016H16.903C10.6247 60.8016 4.66838 57.1263 2.17316 51.0542C-0.483048 44.5825 2.57561 37.232 9.0954 34.5954C14.2468 32.5181 20.2032 34.915 22.3764 40.1083C24.0667 44.2629 22.135 48.897 17.9494 50.6547C14.6493 52.0129 10.8662 50.415 9.49785 47.1392C8.37098 44.5026 9.65883 41.4665 12.315 40.4279C14.4078 39.549 16.903 40.5877 17.7079 42.665C18.4324 44.3428 17.6275 46.2604 15.8567 46.9794" stroke="#3B4956" stroke-width="3" stroke-miterlimit="10" stroke-linejoin="round"/>
<path d="M23.6643 23.4897H48.2946" stroke="#3B4956" stroke-width="3" stroke-miterlimit="10" stroke-linejoin="round"/>
<path d="M1.20728 47.1391V20.6133C1.28777 15.7396 4.18545 11.1056 9.09541 9.10815C14.2468 7.03083 20.2032 9.42774 22.3764 14.621C22.7789 15.4999 22.9399 16.4587 23.0204 17.4174V43.304" stroke="#3B4956" stroke-width="3" stroke-miterlimit="10"/>
<path d="M12.7981 15.0205V17.6571" stroke="#3B4956" stroke-width="3" stroke-miterlimit="10" stroke-linejoin="round"/>
<path d="M12.7981 20.4534V23.09" stroke="#3B4956" stroke-width="3" stroke-miterlimit="10" stroke-linejoin="round"/>
<path d="M12.7981 25.9663V28.6029" stroke="#3B4956" stroke-width="3" stroke-miterlimit="10" stroke-linejoin="round"/>
<path d="M25.5156 27.3248C26.884 27.3248 27.9304 28.4434 27.9304 29.7218V54.4099C27.9304 55.7681 29.0572 56.8068 30.3451 56.8068C31.7134 56.8068 32.7598 55.6882 32.7598 54.4099V51.8532V29.8016C32.7598 28.4434 33.8867 27.4047 35.1746 27.4047C36.4624 27.4047 37.5893 28.5233 37.5893 29.8016V51.9331V54.4898C37.5893 55.848 38.7162 56.8867 40.004 56.8867C41.2919 56.8867 42.4188 55.7681 42.4188 54.4898V29.8016C42.4188 28.4434 43.5456 27.4047 44.8335 27.4047C46.2018 27.4047 47.2482 28.5233 47.2482 29.8016V54.4898C47.2482 55.848 48.3751 56.8867 49.663 56.8867C51.0313 56.8867 52.0777 55.7681 52.0777 54.4898V16.2991" stroke="#3B4956" stroke-width="3" stroke-miterlimit="10" stroke-linejoin="round"/>
</g>
<defs>
<clipPath id="clip0">
<rect width="59" height="62" fill="white"/>
</clipPath>
</defs>
</svg>
