<svg width="120" height="106" viewBox="0 0 120 106" fill="none" xmlns="http://www.w3.org/2000/svg">
<path d="M111.506 105.306H8.67264C7.9202 105.306 7.41857 104.798 7.41857 104.036V51.9744C7.41857 51.2125 7.9202 50.7046 8.67264 50.7046C9.42508 50.7046 9.9267 51.2125 9.9267 51.9744V102.766H110.252V52.4823C110.252 51.7204 110.754 51.2125 111.506 51.2125C112.258 51.2125 112.76 51.7204 112.76 52.4823V104.036C112.76 104.798 112.258 105.306 111.506 105.306Z" fill="#3B4956"/>
<path d="M73.884 97.6873H46.2946C45.5421 97.6873 45.0405 97.1794 45.0405 96.4175V58.3236C45.0405 56.2919 46.7962 54.5142 48.8027 54.5142H71.3759C73.3824 54.5142 75.1381 56.2919 75.1381 58.3236V96.4175C75.1381 97.1794 74.6364 97.6873 73.884 97.6873ZM47.5486 95.1477H72.6299V58.3236C72.6299 57.5617 72.1283 57.0538 71.3759 57.0538H48.8027C48.0503 57.0538 47.5486 57.5617 47.5486 58.3236V95.1477Z" fill="#3B4956"/>
<path d="M78.9003 105.306H41.2783C40.5259 105.306 40.0243 104.798 40.0243 104.037V98.9573C40.0243 96.9257 41.78 95.1479 43.7865 95.1479H76.3922C78.3987 95.1479 80.1543 96.9257 80.1543 98.9573V104.037C80.1543 104.798 79.6527 105.306 78.9003 105.306ZM42.5324 102.767H77.6462V98.9573C77.6462 98.1955 77.1446 97.6875 76.3922 97.6875H43.7865C43.034 97.6875 42.5324 98.1955 42.5324 98.9573V102.767Z" fill="#3B4956"/>
<path d="M101.473 79.9101H86.4247C85.6722 79.9101 85.1706 79.4022 85.1706 78.6403V60.8631C85.1706 58.8314 86.9263 57.0537 88.9328 57.0537H98.9653C100.972 57.0537 102.728 58.8314 102.728 60.8631V78.6403C102.728 79.4022 102.226 79.9101 101.473 79.9101ZM87.6787 77.3705H100.219V60.8631C100.219 60.1012 99.7178 59.5933 98.9653 59.5933H88.9328C88.1804 59.5933 87.6787 60.1012 87.6787 60.8631V77.3705Z" fill="#3B4956"/>
<path d="M101.473 69.7515H86.4247C85.6722 69.7515 85.1706 69.2436 85.1706 68.4817C85.1706 67.7198 85.6722 67.2119 86.4247 67.2119H101.473C102.226 67.2119 102.728 67.7198 102.728 68.4817C102.728 69.2436 102.226 69.7515 101.473 69.7515Z" fill="#3B4956"/>
<path d="M33.7539 79.9101H18.7052C17.9527 79.9101 17.4511 79.4022 17.4511 78.6403V60.8631C17.4511 58.8314 19.2068 57.0537 21.2133 57.0537H31.2458C33.2523 57.0537 35.008 58.8314 35.008 60.8631V78.6403C35.008 79.4022 34.5064 79.9101 33.7539 79.9101ZM19.9592 77.3705H32.4999V60.8631C32.4999 60.1012 31.9982 59.5933 31.2458 59.5933H21.2133C20.4608 59.5933 19.9592 60.1012 19.9592 60.8631V77.3705Z" fill="#3B4956"/>
<path d="M33.7539 69.7515H18.7052C17.9527 69.7515 17.4511 69.2436 17.4511 68.4817C17.4511 67.7198 17.9527 67.2119 18.7052 67.2119H33.7539C34.5064 67.2119 35.008 67.7198 35.008 68.4817C35.008 69.2436 34.5064 69.7515 33.7539 69.7515Z" fill="#3B4956"/>
<path d="M6.41531 54.7681C6.16449 54.7681 5.66287 54.7681 5.41205 54.7681C3.65636 54.5142 2.15148 53.4983 1.14823 52.2285C-0.858272 49.435 -0.105833 45.6256 2.4023 43.5939L59.086 0.420774C59.8385 -0.0871452 60.3401 -0.0871452 60.8417 0.166814L117.525 43.34C120.284 45.3716 120.786 49.181 118.78 51.9746C117.776 53.4983 116.271 54.2602 114.516 54.5142C112.76 54.7681 111.255 54.2602 109.75 53.2444L60.0893 15.6584L10.1775 53.4983C9.17425 54.2602 7.66937 54.7681 6.41531 54.7681ZM60.0893 12.8648C60.3401 12.8648 60.5909 12.8648 60.8417 13.1188L111.506 51.4667C112.258 51.9746 113.262 52.2285 114.265 52.2285C115.268 51.9746 116.271 51.4667 116.773 50.7048C118.027 48.9271 117.525 46.6414 116.021 45.3716L60.0893 2.70641L4.15799 45.3716C2.4023 46.6414 2.15148 48.9271 3.40555 50.7048C3.90718 51.4667 4.91043 52.2285 5.91368 52.2285C6.91693 52.4825 7.92018 52.2285 8.67262 51.4667L59.3369 13.1188C59.5877 12.8648 59.8385 12.8648 60.0893 12.8648Z" fill="#3B4956"/>
<path d="M116.271 105.306H3.65637C2.90393 105.306 2.40231 104.798 2.40231 104.036C2.40231 103.275 2.90393 102.767 3.65637 102.767H116.021C116.773 102.767 117.275 103.275 117.275 104.036C117.525 104.798 116.773 105.306 116.271 105.306Z" fill="#3B4956"/>
<path d="M111.506 39.2764C110.754 39.2764 110.252 38.7685 110.252 38.0066V12.6107C110.252 11.8488 109.75 11.3409 108.998 11.3409H73.884C73.1316 11.3409 72.63 10.8329 72.63 10.0711C72.63 9.30919 73.1316 8.80127 73.884 8.80127H108.998C111.004 8.80127 112.76 10.579 112.76 12.6107V38.0066C112.76 38.7685 112.258 39.2764 111.506 39.2764Z" fill="#3B4956"/>
<path d="M8.67264 39.2764C7.9202 39.2764 7.41857 38.7685 7.41857 38.0066V12.6107C7.41857 10.579 9.17426 8.80127 11.1808 8.80127H46.2946C47.047 8.80127 47.5487 9.30919 47.5487 10.0711C47.5487 10.8329 47.047 11.3409 46.2946 11.3409H11.1808C10.6791 11.3409 9.9267 12.1027 9.9267 12.6107V38.0066C9.9267 38.7685 9.42508 39.2764 8.67264 39.2764Z" fill="#3B4956"/>
<path d="M36.2621 80.1641H16.197C15.4446 80.1641 14.943 79.6562 14.943 78.8943C14.943 78.1324 15.4446 77.6245 16.197 77.6245H36.2621C37.0145 77.6245 37.5161 78.1324 37.5161 78.8943C37.5161 79.4022 37.0145 80.1641 36.2621 80.1641Z" fill="#3B4956"/>
<path d="M103.982 80.1641H83.9165C83.1641 80.1641 82.6625 79.6562 82.6625 78.8943C82.6625 78.1324 83.1641 77.6245 83.9165 77.6245H103.982C104.734 77.6245 105.236 78.1324 105.236 78.8943C105.236 79.4022 104.734 80.1641 103.982 80.1641Z" fill="#3B4956"/>
</svg>
