<?xml version="1.0" encoding="utf-8"?>
<!-- Generator: Adobe Illustrator 23.0.1, SVG Export Plug-In . SVG Version: 6.00 Build 0)  -->
<svg version="1.1" id="Layer_1" xmlns="http://www.w3.org/2000/svg" xmlns:xlink="http://www.w3.org/1999/xlink" x="0px" y="0px"
	 viewBox="0 0 52 52" style="enable-background:new 0 0 52 52;" xml:space="preserve">
<style type="text/css">
	.st0{clip-path:url(#SVGID_2_);}
	.st1{fill:#3B4956;}
</style>
<g>
	<defs>
		<rect id="SVGID_1_" y="0" width="52" height="52"/>
	</defs>
	<clipPath id="SVGID_2_">
		<use xlink:href="#SVGID_1_"  style="overflow:visible;"/>
	</clipPath>
	<g class="st0">
		<path class="st1" d="M9,26c0,9.4,7.6,17,17,17s17-7.7,17-17S35.4,9,26,9S9,16.6,9,26z M40.3,26c0,7.9-6.4,14.3-14.3,14.3
			S11.7,33.9,11.7,26S18.1,11.7,26,11.7S40.3,18.1,40.3,26z"/>
		<path class="st1" d="M42.3,35.4c-0.2,0.3-0.2,0.7-0.1,1c0.1,0.4,0.3,0.6,0.6,0.8l3.9,2.2c0.7,0.4,1.5,0.2,1.9-0.5
			c0.1-0.2,0.2-0.4,0.2-0.7c0-0.5-0.3-0.9-0.7-1.2l-3.9-2.2C43.5,34.5,42.7,34.7,42.3,35.4z"/>
		<path class="st1" d="M9.7,16.6c0.1-0.2,0.2-0.4,0.2-0.7c0-0.5-0.3-0.9-0.7-1.2l-3.9-2.2c-0.3-0.2-0.7-0.2-1-0.1
			C4,12.5,3.7,12.7,3.5,13s-0.2,0.7-0.1,1c0.1,0.4,0.3,0.6,0.6,0.8l3.9,2.2c0.3,0.2,0.7,0.2,1,0.1C9.2,17.1,9.5,16.9,9.7,16.6z"/>
		<path class="st1" d="M34.8,43.1c-0.1,0.4,0,0.7,0.1,1l2.2,3.9c0.2,0.3,0.5,0.5,0.8,0.6c0.4,0.1,0.7,0,1-0.1
			c0.4-0.2,0.7-0.7,0.7-1.2c0-0.2-0.1-0.5-0.2-0.7l-2.2-3.9c-0.2-0.3-0.5-0.5-0.8-0.6c-0.4-0.1-0.7,0-1,0.1
			C35.1,42.5,34.9,42.8,34.8,43.1z"/>
		<path class="st1" d="M17.3,8.5c0-0.2-0.1-0.5-0.2-0.7L14.9,4c-0.2-0.3-0.5-0.5-0.8-0.6c-0.4-0.1-0.7,0-1,0.1
			c-0.3,0.2-0.5,0.5-0.6,0.8c-0.1,0.4,0,0.7,0.1,1l2.2,3.9c0.2,0.3,0.5,0.5,0.8,0.6c0.4,0.1,0.7,0,1-0.1C17,9.5,17.3,9,17.3,8.5z"/>
		<path class="st1" d="M26,44.8c-0.8,0-1.4,0.6-1.4,1.4v4.5c0,0.8,0.6,1.4,1.4,1.4c0.8,0,1.4-0.6,1.4-1.4v-4.5
			C27.4,45.4,26.8,44.8,26,44.8z"/>
		<path class="st1" d="M24.6,1.4v4.5c0,0.8,0.6,1.4,1.4,1.4c0.8,0,1.4-0.6,1.4-1.4V1.4C27.4,0.6,26.8,0,26,0
			C25.2,0,24.6,0.6,24.6,1.4z"/>
		<path class="st1" d="M14.9,48l2.2-3.9c0.1-0.2,0.2-0.4,0.2-0.7c0-0.5-0.3-0.9-0.7-1.2c-0.3-0.2-0.7-0.2-1-0.1
			c-0.4,0.1-0.6,0.3-0.8,0.6l-2.2,3.9c-0.2,0.3-0.2,0.7-0.1,1c0.1,0.4,0.3,0.6,0.6,0.8c0.3,0.2,0.7,0.2,1,0.1
			C14.4,48.6,14.7,48.3,14.9,48z"/>
		<path class="st1" d="M37.1,4l-2.2,3.9c-0.2,0.3-0.2,0.7-0.1,1c0.1,0.4,0.3,0.6,0.6,0.8c0.3,0.2,0.7,0.2,1,0.1
			c0.4-0.1,0.6-0.3,0.8-0.6l2.2-3.9c0.1-0.2,0.2-0.4,0.2-0.7c0-0.5-0.3-0.9-0.7-1.2c-0.3-0.2-0.7-0.2-1-0.1
			C37.6,3.4,37.3,3.7,37.1,4z"/>
		<path class="st1" d="M9.2,37.3c0.4-0.2,0.7-0.7,0.7-1.2c0-0.2-0.1-0.5-0.2-0.7c-0.2-0.3-0.5-0.5-0.8-0.6c-0.4-0.1-0.7,0-1,0.1
			L4,37.1c-0.3,0.2-0.5,0.5-0.6,0.8c-0.1,0.4,0,0.7,0.1,1s0.5,0.5,0.8,0.6c0.4,0.1,0.7,0,1-0.1L9.2,37.3z"/>
		<path class="st1" d="M42.8,14.7c-0.3,0.2-0.5,0.5-0.6,0.8c-0.1,0.4,0,0.7,0.1,1c0.4,0.7,1.2,0.9,1.9,0.5l3.9-2.2
			c0.4-0.2,0.7-0.7,0.7-1.2c0-0.2-0.1-0.5-0.2-0.7c-0.4-0.7-1.2-0.9-1.9-0.5L42.8,14.7z"/>
		<path class="st1" d="M7.2,26c0-0.8-0.6-1.4-1.4-1.4H1.4C0.6,24.6,0,25.2,0,26s0.6,1.4,1.4,1.4h4.5C6.6,27.4,7.2,26.8,7.2,26z"/>
		<path class="st1" d="M44.8,26c0,0.8,0.6,1.4,1.4,1.4h4.5c0.8,0,1.4-0.6,1.4-1.4s-0.6-1.4-1.4-1.4h-4.5
			C45.4,24.6,44.8,25.2,44.8,26z"/>
	</g>
</g>
</svg>
