<?xml version="1.0" encoding="utf-8"?>
<!-- Generator: Adobe Illustrator 23.0.1, SVG Export Plug-In . SVG Version: 6.00 Build 0)  -->
<svg version="1.1" xmlns="http://www.w3.org/2000/svg" xmlns:xlink="http://www.w3.org/1999/xlink" x="0px" y="0px"
	 viewBox="0 0 496 496" style="enable-background:new 0 0 496 496;" xml:space="preserve">
<defs>
	<mask id="water_circle">
		<circle id="water-circle-shape" cx="287.9" cy="279.5" r="105.1" fill="#000000" />

		<path class="o-washingmachine-water" fill="#ffffff" d="M1151.3,287.9l-2.5,0c-2.7-0.2-9.5-1.1-14.3-5.7c-9.9-9.7-17.2-11.7-25.6-11.7c-8.1,0-15.5,2-25.2,11.7
		c-4.8,4.6-11.7,5.6-13.8,5.8l-2.5,0c-2.7-0.2-9.5-1.1-14.3-5.7c-9.9-9.7-17.3-11.7-25.6-11.7c-8,0-15.4,2-25.2,11.7
		c-4.8,4.6-11.6,5.6-13.7,5.7h-2.7c-2.8-0.2-9.4-1.2-14.1-5.7c-9.9-9.7-17.3-11.7-25.6-11.7c-8,0-15.4,2-25.3,11.7
		c-4.7,4.6-11.6,5.5-13.7,5.7l-2.5,0c-2.7-0.2-9.5-1.1-14.3-5.7c-9.9-9.7-17.2-11.7-25.6-11.7c-8.1,0-15.5,2-25.2,11.7
		c-4.8,4.6-11.7,5.6-13.8,5.7l-2.5,0c-2.7-0.2-9.6-1.1-14.3-5.7c-9.9-9.7-17.3-11.7-25.6-11.7c-8,0-15.4,2-25.2,11.7
		c-4.8,4.6-11.6,5.6-13.7,5.7l-2.5,0c-2.7-0.2-9.5-1.1-14.3-5.7c-9.9-9.7-17.3-11.7-25.6-11.7c-8,0-15.4,2-25.3,11.7
		c-3.1,3.1-7.1,4.5-10.3,5.2c-0.8-0.3-1.7-0.4-2.5-0.4l-2.5,0c-2.7-0.2-9.5-1.1-14.3-5.7c-9.9-9.7-17.2-11.7-25.6-11.7
		c-8.1,0-15.5,2-25.2,11.7c-4.8,4.6-11.7,5.6-13.8,5.8l-2.5,0c-2.7-0.2-9.5-1.1-14.3-5.7c-9.9-9.7-17.3-11.7-25.6-11.7
		c-8,0-15.4,2-25.2,11.7c-4.8,4.6-11.6,5.6-13.7,5.7h-2.7c-2.8-0.2-9.4-1.2-14.1-5.7c-9.9-9.7-17.3-11.7-25.6-11.7
		c-8,0-15.4,2-25.3,11.7c-4.7,4.6-11.6,5.5-13.7,5.7l-2.5,0c-2.7-0.2-9.5-1.1-14.3-5.7c-9.9-9.7-17.2-11.7-25.6-11.7
		c-8.1,0-15.5,2-25.2,11.7c-4.8,4.6-11.7,5.6-13.8,5.7l-2.5,0c-2.7-0.2-9.6-1.1-14.3-5.7c-9.9-9.7-17.3-11.7-25.6-11.7
		c-8,0-15.4,2-25.2,11.7c-4.8,4.6-11.6,5.6-13.7,5.7l-2.5,0c-2.7-0.2-9.5-1.1-14.3-5.7c-9.9-9.7-17.3-11.7-25.6-11.7
		c-8,0-15.4,2-25.3,11.7c-3.5,3.4-8.1,4.8-11.4,5.4c-4.5,0.8-7.6,5.1-6.8,9.7c0.8,4.5,5.1,7.6,9.7,6.8c5.6-1,13.6-3.5,20.2-9.9
		c7-6.9,10.4-6.9,13.9-6.9c3.2,0,6.5,0,13.6,7c8.4,8.2,19.1,10,25.4,10.5l3.7,0c5.6-0.4,16.4-2.3,24.8-10.5c7-6.9,10.4-6.9,13.9-6.9
		c3.2,0,6.6,0,13.6,7c8.4,8.2,19.1,10,25.4,10.5l3.6,0c5.7-0.4,16.4-2.3,24.9-10.5c7-6.9,10.3-6.9,13.9-6.9c3.2,0,6.5,0,13.6,7
		c8.4,8.2,19.2,10,25.4,10.4l3.7,0c5.7-0.4,16.4-2.3,24.8-10.5c7.1-6.9,10.4-6.9,13.9-6.9c3.2,0,6.6,0,13.6,7
		c8.4,8.2,19.1,10,24.8,10.4c0.2,0,0.4,0,0.6,0c0,0,0,0,0,0h0l3.7,0c5.6-0.4,16.4-2.3,24.8-10.5c7-6.9,10.4-6.9,13.9-6.9
		c3.2,0,6.6,0,13.7,7c8.4,8.2,19.1,10,25.4,10.5l3.7,0c5.7-0.4,16.4-2.3,24.9-10.5c7-6.9,10.3-6.9,13.9-6.9c3.2,0,6.5,0,13.6,7
		c8.4,8.2,19.2,10,25.4,10.4h3.1c0,0,0,0,0.1,0c1.3,0.5,2.8,0.6,4.2,0.4c5.6-1,13.6-3.5,20.2-9.9c7-6.9,10.4-6.9,13.9-6.9
		c3.2,0,6.5,0,13.6,7c8.4,8.2,19.1,10,25.4,10.5l3.7,0c5.6-0.4,16.4-2.3,24.8-10.5c7-6.9,10.4-6.9,13.9-6.9c3.2,0,6.6,0,13.6,7
		c8.4,8.2,19.1,10,25.4,10.5l3.6,0c5.7-0.4,16.4-2.3,24.9-10.5c7-6.9,10.3-6.9,13.9-6.9c3.2,0,6.5,0,13.6,7
		c8.4,8.2,19.2,10,25.4,10.4l3.7,0c5.7-0.4,16.4-2.3,24.8-10.5c7.1-6.9,10.4-6.9,13.9-6.9c3.2,0,6.6,0,13.6,7
		c8.4,8.2,19.1,10,24.8,10.4c0.2,0,0.4,0,0.6,0c0,0,0,0,0,0h0l3.7,0c5.6-0.4,16.4-2.3,24.8-10.5c7-6.9,10.4-6.9,13.9-6.9
		c3.2,0,6.6,0,13.7,7c8.4,8.2,19.1,10,25.4,10.5l3.7,0c5.7-0.4,16.4-2.3,24.9-10.5c7-6.9,10.3-6.9,13.9-6.9c3.2,0,6.5,0,13.6,7
		c8.4,8.2,19.2,10,25.4,10.4h3.1c4.6,0,8.4-3.7,8.4-8.4S1156,287.9,1151.3,287.9z"/>
	</mask>
</defs>
<g id="WashingmachineSVG">
	<path class="o-svg-dark" d="M488,0H88c-4.4,0-8,3.6-8,8v296.8c-2.6-0.5-5.3-0.8-8-0.8c-22.1,0-40,17.9-40,40v0.2
		c-7.8,5.9-13.2,14.4-15.1,23.8H8c-4.4,0-8,3.6-8,8v32c0,4.4,3.6,8,8,8h8v24c0,30.9,25.1,56,56,56h416c4.4,0,8-3.6,8-8V8
		C496,3.6,492.4,0,488,0z M480,16v80H96V16H480z M44.3,355.2c2.8-1.6,4.4-4.8,4-8l-0.1-0.9c-0.1-0.7-0.2-1.5-0.2-2.2
		c0-13.2,10.8-24,24-24c8.4,0,16.1,4.4,20.5,11.8c1.2,2,3.2,3.4,5.6,3.8c2.3,0.4,4.7-0.3,6.5-1.8c3.1-2.6,8.3-5.8,15.4-5.8
		c8.6,0,16.5,4.7,20.8,12.3c1.7,3,5.1,4.6,8.4,4c8.4-1.5,16.9,4.2,18.5,12.7c0.6,3,2.8,5.5,5.8,6.3c3,0.8,6.2-0.2,8.2-2.6
		c4.6-5.5,11.3-8.7,18.3-8.7c10.4,0,19.2,6.7,22.5,16H33.6C35.5,362.7,39.2,358.1,44.3,355.2z M152,280c0-75,61-136,136-136
		s136,61,136,136s-61,136-136,136c-11.3,0-22.3-1.5-33.1-4.2c0.6-1.1,1.1-2.4,1.1-3.8v-12.3c10.4,2.9,21.1,4.3,32,4.3
		c66.2,0,120-53.8,120-120s-53.8-120-120-120s-120,53.8-120,120c0,21.1,5.5,41.4,15.8,59.5c-1.8,0.8-3.5,1.7-5.2,2.8
		c-4.1-6.1-10.2-10.6-17.2-12.8C155.3,313.7,152,297.1,152,280z M16,384h224v16H16V384z M176,480H72c-22.1,0-40-17.9-40-40v-24h192
		v24c0,22.1-17.9,40-40,40H176z M223.1,480c10.4-10.2,16.9-24.3,16.9-40v-15.9c15.4,5.1,31.5,7.9,48,7.9c83.8,0,152-68.2,152-152
		s-68.2-152-152-152s-152,68.2-152,152c0,13,1.8,25.7,5,38.1c-6.2-3.9-13.5-6.1-21-6.1c-6.5,0-13,1.7-18.8,4.8
		c-1.6-1.7-3.4-3.2-5.2-4.6V112h384v368H223.1z M392.4,278.7c0,57.5-46.6,104.1-104.1,104.1s-104.1-46.6-104.1-104.1
		s46.6-104.1,104.1-104.1S392.4,221.2,392.4,278.7z"/>
	<path class="o-svg-dark" d="M136,80c13.2,0,24-10.8,24-24s-10.8-24-24-24s-24,10.8-24,24S122.8,80,136,80z M136,48c4.4,0,8,3.6,8,8
		s-3.6,8-8,8s-8-3.6-8-8S131.6,48,136,48z"/>
	<path class="o-svg-dark" d="M200,80c13.2,0,24-10.8,24-24s-10.8-24-24-24s-24,10.8-24,24S186.8,80,200,80z M200,48c4.4,0,8,3.6,8,8
		s-3.6,8-8,8s-8-3.6-8-8S195.6,48,200,48z"/>
	<path class="o-svg-dark" d="M264,80c13.2,0,24-10.8,24-24s-10.8-24-24-24s-24,10.8-24,24S250.8,80,264,80z M264,48c4.4,0,8,3.6,8,8
		s-3.6,8-8,8s-8-3.6-8-8S259.6,48,264,48z"/>
	<path class="o-svg-dark" d="M448,64h16v16h-16V64z"/>
	<path class="o-svg-dark" d="M448,32h16v16h-16V32z"/>
	<path class="o-svg-dark" d="M416,64h16v16h-16V64z"/>
	<path class="o-svg-dark" d="M416,32h16v16h-16V32z"/>
	<path class="o-svg-dark" d="M384,64h16v16h-16V64z"/>
	<path class="o-svg-dark" d="M384,32h16v16h-16V32z"/>
	<path class="o-svg-dark" d="M352,64h16v16h-16V64z"/>
	<path class="o-svg-dark" d="M352,32h16v16h-16V32z"/>
	<g id="masked-water-circle" mask="url(#water_circle)" >
	<circle class="o-svg-dark" cx="287.9" cy="279.5" r="105.1"/>
	</g>
	
</g>
</svg>
